<?xml version="1.0" encoding="UTF-8"?>
<!DOCTYPE svg PUBLIC "-//W3C//DTD SVG 1.1//EN" "http://www.w3.org/Graphics/SVG/1.1/DTD/svg11.dtd">
<!-- Creator: CorelDRAW -->
<svg xmlns="http://www.w3.org/2000/svg" xml:space="preserve" width="2048px" height="2048px" style="shape-rendering:geometricPrecision; text-rendering:geometricPrecision; image-rendering:optimizeQuality; fill-rule:evenodd; clip-rule:evenodd"
viewBox="0 0 2048 2048"
 xmlns:xlink="http://www.w3.org/1999/xlink">
 <defs>
  <style type="text/css">
   <![CDATA[
    .fil1 {fill:none}
    .fil0 {fill:#424242;fill-rule:nonzero}
   ]]>
  </style>
 </defs>
 <g id="Layer_x0020_1">
  <metadata id="CorelCorpID_0Corel-Layer"/>
  <path class="fil0" d="M540.044 953.907c95.8489,-186.487 274.525,-336.359 493.118,-306.983 4.00394,0.537402 7.6193,1.03347 10.9039,1.4811 15.026,2.05276 22.6795,3.1004 28.5792,3.10512 6.23741,0.00590552 14.3587,-1.10787 30.8953,-3.37677l8.20631 -1.12323c218.54,-29.7473 397.276,119.763 493.348,306.075 40.917,79.3536 66.913,165.723 74.5418,247.76 7.79646,83.8312 -3.64252,163.569 -37.891,227.654 -52.4233,98.0942 -155.286,158.398 -319.975,140.791l-248.99 0 -248.99 0c-164.689,17.6067 -267.552,-42.6969 -319.976,-140.79 -34.187,-63.9709 -45.6437,-143.549 -37.9288,-227.232 7.54725,-81.8611 33.4087,-168.078 74.1579,-247.361z"/>
  <path class="fil0" d="M863.605 684.812c0,17.6728 14.328,32.0008 32.0008,32.0008 17.6728,0 32.0008,-14.328 32.0008,-32.0008 0,-40.0926 16.2484,-76.3879 42.5174,-102.657 26.2689,-26.2689 62.5642,-42.5174 102.657,-42.5174 40.0926,0 76.3879,16.2484 102.657,42.5174 26.2689,26.2689 42.5174,62.5642 42.5174,102.657 0,17.6728 14.328,32.0008 32.0008,32.0008 17.6728,0 32.0008,-14.328 32.0008,-32.0008 0,-57.7583 -23.4142,-110.053 -61.2686,-147.907 -37.8544,-37.8544 -90.1489,-61.2686 -147.907,-61.2686 -57.7583,0 -110.053,23.4142 -147.907,61.2686 -37.8544,37.8544 -61.2686,90.1489 -61.2686,147.907z"/>
  <path class="fil0" d="M1674.52 1033.15l113.496 -227.577c2.53937,-4.58622 3.98622,-9.86103 3.98622,-15.4748 0,-17.6728 -14.328,-32.0008 -32.0008,-32.0008l-258.085 0c52.8367,51.789 97.3229,113.811 131.621,180.326 15.6331,30.3177 29.426,62.0823 40.9831,94.7268z"/>
  <path class="fil0" d="M483.324 1317.76c1.71969,0.859843 3.47953,1.54961 5.26182,2.0752l-0.0141732 0.0484252c-85.8296,-25.3252 -153.279,-83.0599 -192.941,-155.927 -39.2953,-72.1902 -51.3142,-159.195 -26.9303,-244.216 0.354331,-1.69252 0.842127,-3.33662 1.45158,-4.9193 25.7032,-84.6355 83.015,-151.166 155.172,-190.441 72.1902,-39.2941 159.193,-51.3154 244.208,-26.9339 1.67244,0.349607 3.29528,0.830316 4.86024,1.42913 12.4252,3.78189 24.887,8.44607 37.3122,13.9618 13.3051,5.9067 25.8662,12.4665 37.5933,19.6347 15.0496,9.18072 19.8059,28.826 10.6252,43.8756 -9.18072,15.0496 -28.826,19.8059 -43.8756,10.6252 -10.0571,-6.14764 -20.1118,-11.4543 -30.0933,-15.8858 -9.44883,-4.19528 -19.461,-7.89922 -29.9799,-11.0882 -0.693308,-0.155906 -1.38425,-0.333071 -2.0752,-0.536221l0.022441 -0.0767717c-68.9741,-20.3421 -139.628,-10.8307 -198.097,20.9953 -57.9119,31.5225 -103.917,84.939 -124.565,152.913 -0.305906,1.36654 -0.705119,2.72599 -1.2,4.06772 -19.5756,68.3386 -9.94725,138.19 21.5717,196.094 31.5225,57.9119 84.939,103.919 152.915,124.566 2.48977,0.558662 4.95237,1.42205 7.33701,2.61496l-0.0614174 0.121654 0.00236221 0.0011811c15.7394,7.86969 22.1197,27.0107 14.25,42.75 -7.00985,14.0197 -22.963,20.6138 -37.4882,16.3252l8.98111 -30.5622 -14.2429 28.487z"/>
 </g>
 <rect class="fil1" width="2048" height="2048"/>
</svg>
