<?xml version="1.0" encoding="UTF-8"?>
<!DOCTYPE svg PUBLIC "-//W3C//DTD SVG 1.1//EN" "http://www.w3.org/Graphics/SVG/1.1/DTD/svg11.dtd">
<!-- Creator: CorelDRAW -->
<svg xmlns="http://www.w3.org/2000/svg" xml:space="preserve" width="2048px" height="2048px" style="shape-rendering:geometricPrecision; text-rendering:geometricPrecision; image-rendering:optimizeQuality; fill-rule:evenodd; clip-rule:evenodd"
viewBox="0 0 2048 2048"
 xmlns:xlink="http://www.w3.org/1999/xlink">
 <defs>
  <style type="text/css">
   <![CDATA[
    .fil1 {fill:none}
    .fil0 {fill:#424242;fill-rule:nonzero}
   ]]>
  </style>
 </defs>
 <g id="Layer_x0020_1">
  <metadata id="CorelCorpID_0Corel-Layer"/>
  <path class="fil0" d="M523.461 1487.69c-15.9827,-36.0331 -40.0843,-95.9245 -56.8241,-162.756 -17.5937,-70.2378 -27.2445,-148.767 -11.9055,-218.042l31.1256 6.8752 -31.2437 -6.9189c1.43858,-6.49607 4.75748,-12.0886 9.25749,-16.3358l3.73347 -4.20827 5.57008 -101.436 -0.0767717 -0.00472441c0.825591,-15.0508 11.9291,-27.1004 26.1272,-29.7166l11.0587 -40.7422 30.8752 8.3752 -30.8823 -8.38229c2.24646,-8.27481 7.54253,-14.9079 14.348,-19.0134l8.03623 -26.9303 30.6248 9.1252 -30.6638 -9.15119c4.27087,-14.3114 17.6646,-23.4059 31.9323,-22.8307l9.13111 -0.386221 37.2118 -83.9552 29.25 12.8752 -29.2547 -12.9673c5.07284,-11.4461 16.0406,-18.4406 27.7488,-19.0016l14.7496 -1.22599 49.2662 -89.1154 28.0004 15.3756 -28.0051 -15.4831c7.77638,-14.0669 24.587,-19.9748 39.202,-14.4969l7.57796 2.06811 64.2886 -83.4131 -0.0767717 -0.0590552c5.3126,-6.89292 12.8823,-11.0197 20.8689,-12.1476l34.2414 -6.08268 90.2245 -80.5737 21.2504 23.7496 -21.3154 -23.8677c4.10906,-3.66969 8.90316,-6.08386 13.9134,-7.26969l75.2481 -21.6697c13.7055,-8.02914 54.7158,-28.676 125.229,-36.5268l-0.00590552 -0.056693c17.5642,-1.95354 33.3886,10.7008 35.3422,28.265 1.09961,9.88583 -2.42717,19.2201 -8.85355,25.8402 -4.27441,5.46142 -7.34056,12.5681 -8.8819,21.841 -2.13071,12.8185 -1.51536,29.2547 2.4626,50.2453l4.26024 22.4894 0.0791339 -0.0153543c0.728741,3.84685 0.733465,7.66418 0.114567,11.3114 -0.157087,2.30315 -0.217323,4.58504 -0.183071,6.83859 0.409843,26.7166 13.3772,54.7252 33.9437,77.1331 20.3339,22.1551 47.6244,38.2099 77.0847,41.5004l-292.063 292.064 -96.4253 -230.819c-6.76536,-16.2921 -25.4587,-24.0154 -41.7508,-17.25 -16.2921,6.76536 -24.0154,25.4587 -17.25,41.7508l106.591 255.154 -387.088 387.089c-12.4949,12.4949 -12.4949,32.7555 0,45.2504 12.4949,12.4949 32.7555,12.4949 45.2504,0l256.562 -256.562 255.154 106.59c16.2921,6.76536 34.9855,-0.957875 41.7508,-17.25 6.76536,-16.2921 -0.957875,-34.9855 -17.25,-41.7508l-230.819 -96.4253 430.823 -430.824c52.578,92.6457 25.2248,144.752 4.87205,183.477 -12.1913,23.1969 -18.502,35.2063 145.897,91.3394l24.1772 8.25591c3.62362,1.2378 8.24883,2.7437 13.7256,4.4752 7.01339,2.21811 10.9169,3.43465 12.2539,3.82205l-8.87481 30.6248 8.92324 -30.7311c16.9713,4.92756 26.7355,22.6831 21.8079,39.6544 -0.11811,0.4063 -0.245669,0.806694 -0.377953,1.20473l-3.82914 13.2992 -3.65197 -1.03937 -0.0696851 0.0720473 3.72284 1.07126c-1.66654,5.78741 -4.82481,10.7398 -8.93623,14.563l-78.639 88.0572 -6.26457 35.2666 -31.5 -5.5004 31.5071 5.59607c-1.60512,9.04016 -6.86221,16.5118 -13.9807,21.1748l-81.4631 62.7863 2.83347 10.3866 0.125197 -0.034252c4.14567,15.1961 -3.38977,30.8244 -17.1484,37.3359l-87.4631 48.3532 -1.31929 15.8693 -31.8756 -2.62559 31.8898 2.65276c-1.05473,12.6898 -9.38032,23.0315 -20.5394,27.2729l-82.4304 36.5362 -0.491339 11.6492 -26.8784 -1.05354 -0.101575 0.0106299 27.0756 1.14213c-0.616536,14.6398 -10.9795,26.5666 -24.5658,29.7898l-25.2071 7.52127c-4.32756,7.15867 -11.3976,12.5291 -19.8638,14.5701l-40.017 10.8614 -0.106299 0.519685 -1.0311 -0.210236 -0.0992127 0.0271654 1.22599 0.251575c-3.15,15.3225 -16.7669,25.8142 -31.8579,25.5555l-99.1737 5.44607 -6.30827 5.59607 0.080315 0.0897638c-5.0315,4.46339 -11.0776,7.05001 -17.2843,7.81654 -68.556,14.4343 -145.866,4.81181 -215.118,-12.535 -68.3315,-17.1154 -129.412,-41.928 -165.15,-57.8894l13.0004 -29.1248 -13.05 29.2181c-8.35749,-3.73229 -14.3268,-10.6087 -17.1402,-18.6118z"/>
  <path class="fil0" d="M1324.95 276.603c41.0008,-4.39725 92.7355,-4.70552 156.098,3.99567 62.889,8.63623 137.393,26.1815 224.391,57.5103 -10.7457,-2.97166 -22.7386,-0.237402 -31.1847,8.20867l-267.894 267.895c-27.6177,-11.0268 -52.3063,-28.7091 -72.0816,-50.2559 -30.6744,-33.4205 -50.0339,-76.78 -50.693,-119.63 -0.056693,-3.72756 0.0236221,-7.42087 0.245669,-11.0728l-3.51614 -18.554c-5.41536,-28.5744 -6.02599,-52.3099 -2.71299,-72.2445 3.76654,-22.6512 12.4004,-40.474 24.8067,-54.7678l24.1252 20.8748 -24.1666 -20.9752c5.95158,-6.8563 14.1791,-10.5661 22.5827,-10.9843zm386.882 64.043c4.62166,2.43543 8.45079,5.89961 11.3008,9.99686 -1.06181,-1.52008 -2.27244,-2.96929 -3.62835,-4.3252 -2.32205,-2.32205 -4.91339,-4.213 -7.67245,-5.67166zm15.7512 19.2803l0.180709 0.63189c116.291,323.109 41.6481,478.389 24.7524,507.363l-17.8665 62.0481 -30.75 -8.74961 30.7512 8.85473c-4.88977,16.9831 -22.6229,26.7862 -39.6059,21.8965 -0.904725,-0.259843 -1.78583,-0.559843 -2.64803,-0.890552 -5.50158,-1.60394 -9.29883,-2.73189 -11.126,-3.30945 -3.62599,-1.14685 -8.54528,-2.77677 -14.9764,-4.97244l-24.176 -8.25591c-235.139,-80.2867 -216.979,-114.84 -181.898,-181.59 12.1028,-23.0244 27.9508,-53.1933 4.07835,-106.178l255.206 -255.207c8.56536,-8.56536 11.2571,-20.7803 8.07875,-31.6418z"/>
  <path class="fil0" d="M577.392 1498.6c12.4949,-12.4949 12.4949,-32.7555 0,-45.2504 -12.4949,-12.4949 -32.7555,-12.4949 -45.2504,0l-266.444 266.444c-12.4949,12.4949 -12.4949,32.7555 0,45.2504 12.4949,12.4949 32.7555,12.4949 45.2504,0l266.444 -266.444z"/>
 </g>
 <rect class="fil1" width="2048" height="2048"/>
</svg>
