<?xml version="1.0" encoding="UTF-8"?>
<!DOCTYPE svg PUBLIC "-//W3C//DTD SVG 1.1//EN" "http://www.w3.org/Graphics/SVG/1.1/DTD/svg11.dtd">
<!-- Creator: CorelDRAW -->
<svg xmlns="http://www.w3.org/2000/svg" xml:space="preserve" width="2048px" height="2048px" style="shape-rendering:geometricPrecision; text-rendering:geometricPrecision; image-rendering:optimizeQuality; fill-rule:evenodd; clip-rule:evenodd"
viewBox="0 0 2048 2048"
 xmlns:xlink="http://www.w3.org/1999/xlink">
 <defs>
  <style type="text/css">
   <![CDATA[
    .fil1 {fill:none}
    .fil0 {fill:#424242;fill-rule:nonzero}
   ]]>
  </style>
 </defs>
 <g id="Layer_x0020_1">
  <metadata id="CorelCorpID_0Corel-Layer"/>
  <path class="fil0" d="M987.745 1508.85c157.028,0 299.882,24.1288 403.904,63.1359 113.418,42.5327 183.571,104.95 183.571,177.168 0,2.03032 -0.105118,4.55197 -0.312992,7.5626 -0.15,2.20158 -0.421654,4.71733 -0.805512,7.52953l0.0791339 0.0885827c-2.21103,16.1587 -16.1291,27.8398 -32.0244,27.6626l-1109.14 0c-17.1236,0 -31.1079,-13.4516 -31.9595,-30.365 -0.211417,-1.77992 -0.369685,-3.42048 -0.47126,-4.91575 -0.207874,-3.01063 -0.312992,-5.53229 -0.312992,-7.5626 0,-72.2174 70.1528,-134.635 183.571,-177.168 104.022,-39.0071 246.877,-63.1359 403.904,-63.1359z"/>
  <path class="fil0" d="M955.744 1650.43c0,17.6728 14.328,32.0008 32.0008,32.0008 17.6728,0 32.0008,-14.328 32.0008,-32.0008l0 -1313.83c0,-17.6728 -14.328,-32.0008 -32.0008,-32.0008 -17.6728,0 -32.0008,14.328 -32.0008,32.0008l0 1313.83z"/>
  <path class="fil0" d="M567.942 418.998c-12.0118,-12.9095 -32.2158,-13.637 -45.1252,-1.6252 -12.9095,12.0118 -13.637,32.2158 -1.6252,45.1252l443.178 475.726c12.0118,12.9095 32.2158,13.637 45.1252,1.6252 12.9095,-12.0118 13.637,-32.2158 1.6252,-45.1252l-443.178 -475.726z"/>
  <path class="fil0" d="M680.219 331.472c-2.82992,-17.3965 -19.2284,-29.2051 -36.6248,-26.3752 -17.3965,2.82992 -29.2051,19.2284 -26.3752,36.6248l42.9886 262.097c2.82992,17.3965 19.2284,29.2051 36.6248,26.3752 17.3965,-2.82992 29.2051,-19.2284 26.3752,-36.6248l-42.9886 -262.097z"/>
  <path class="fil0" d="M1454.3 715.832c12.0118,-12.9095 11.2843,-33.1134 -1.6252,-45.1252 -12.9095,-12.0118 -33.1134,-11.2843 -45.1252,1.6252l-443.178 475.726c-12.0118,12.9095 -11.2843,33.1134 1.6252,45.1252 12.9095,12.0118 33.1134,11.2843 45.1252,-1.6252l443.178 -475.726z"/>
  <path class="fil0" d="M1358.27 595.056c2.82992,-17.3965 -8.97875,-33.7949 -26.3752,-36.6248 -17.3965,-2.82992 -33.7949,8.97875 -36.6248,26.3752l-42.9886 262.099c-2.82992,17.3965 8.97875,33.7949 26.3752,36.6248 17.3965,2.82992 33.7949,-8.97875 36.6248,-26.3752l42.9886 -262.099z"/>
  <path class="fil0" d="M1279.17 372.746c12.0118,-12.9095 11.2843,-33.1134 -1.6252,-45.1252 -12.9095,-12.0118 -33.1134,-11.2843 -45.1252,1.6252l-268.054 287.74c-12.0118,12.9095 -11.2843,33.1134 1.6252,45.1252 12.9095,12.0118 33.1134,11.2843 45.1252,-1.6252l268.054 -287.74z"/>
  <path class="fil0" d="M1224.3 293.125c2.82992,-17.3965 -8.97875,-33.7949 -26.3752,-36.6248 -17.3965,-2.82992 -33.7949,8.97875 -36.6248,26.3752l-26.002 158.529c-2.82992,17.3965 8.97875,33.7949 26.3752,36.6248 17.3965,2.82992 33.7949,-8.97875 36.6248,-26.3752l26.002 -158.529z"/>
  <path class="fil0" d="M440.377 703.999l-31.1256 6.8752c-54.6815,-246.065 152.986,-233.334 176.617,-231.118 12.9036,0.52441 24.7382,8.88308 29.0634,21.8599l-30.3579 10.1197 30.2504 -10.0004c54.7831,164.348 -135.55,224.433 -163.226,232.233 -1.37717,0.51378 -2.80512,0.940158 -4.28032,1.2685 -17.2512,3.83268 -34.3465,-7.04528 -38.1792,-24.2965l31.2378 -6.94134z"/>
  <path class="fil0" d="M387.79 976.679c64.9737,-239.253 238.271,-138.748 262.878,-123.052 11.8417,6.23977 18.9354,19.5437 16.6571,33.4796l-0.0850394 -0.0141732c-28.6453,175.074 -233.473,134.076 -254.131,129.484 -0.943702,-0.167717 -1.88858,-0.375591 -2.83229,-0.63189 -17.0551,-4.63111 -27.1276,-22.213 -22.4965,-39.2681l0.00944883 0.00236221z"/>
  <path class="fil0" d="M461.898 1343.15c-156.836,-201.155 42.6449,-278.312 61.1186,-284.921 11.7118,-4.61457 25.5591,-2.03622 34.8201,7.60394l-0.0625985 0.0590552c122.154,127.175 -30.9756,265.582 -48.5894,280.758 -0.778347,0.742914 -1.60039,1.4563 -2.46732,2.13189 -13.937,10.8673 -34.0453,8.37875 -44.9126,-5.55827l0.0933072 -0.0732284z"/>
  <path class="fil0" d="M1347.88 1234.43c-247.703,-38.6386 -162.406,-225.543 -150.957,-248.442 5.11772,-11.9941 17.3114,-20.1095 31.0914,-19.3984l-0.00472441 0.0826772c178.202,9.21733 158.802,219.669 156.695,238.627 -0.0637796,0.851575 -0.161811,1.70788 -0.295276,2.56654 -2.72244,17.4614 -19.0866,29.4107 -36.5481,26.6882l0.0188977 -0.124016z"/>
  <path class="fil0" d="M1574.45 1370.73c-208.404,-134.753 -59.4544,-269.427 -37.2945,-287.848 9.54686,-9.26812 24.2894,-11.9232 36.8091,-5.55119l-0.0106299 0.0212599c155.609,79.2083 59.7733,257.596 46.5945,280.563 -0.570473,1.17638 -1.21654,2.3315 -1.94528,3.45827 -9.5941,14.8417 -29.4047,19.0949 -44.2465,9.50079l0.0933072 -0.144095z"/>
 </g>
 <rect class="fil1" width="2048" height="2048"/>
</svg>
